<?xml version="1.0" standalone="no"?><!DOCTYPE svg PUBLIC "-//W3C//DTD SVG 1.1//EN" "http://www.w3.org/Graphics/SVG/1.1/DTD/svg11.dtd"><svg t="1732721494601" class="icon" viewBox="0 0 1024 1024" version="1.1" xmlns="http://www.w3.org/2000/svg" p-id="22372" xmlns:xlink="http://www.w3.org/1999/xlink" width="128" height="128"><path d="M861.928058 506.47482l-5.52518 11.05036-58.935252 90.244604H865.611511v-84.719424V497.266187c-1.841727 3.683453-3.683453 5.52518-3.683453 9.208633z" fill="#ff6868" p-id="22373"></path><path d="M821.410072 0H200.748201C90.244604 0 0 90.244604 0 200.748201v620.661871c0 110.503597 90.244604 200.748201 200.748201 200.748201h620.661871c110.503597 0 200.748201-90.244604 200.748201-200.748201V200.748201C1024 90.244604 931.913669 0 821.410072 0zM362.820144 414.388489c-25.784173-14.733813-53.410072-22.100719-86.561151-22.100719-36.834532 0-66.302158 11.05036-88.402878 34.992806-22.100719 23.942446-33.151079 53.410072-33.151079 92.08633 0 36.834532 11.05036 66.302158 31.309352 88.402878s49.726619 33.151079 84.719425 33.151079c33.151079 0 64.460432-7.366906 92.086331-23.942446v73.669065c-27.625899 12.892086-62.618705 20.258993-106.820144 20.258993-57.093525 0-101.294964-16.57554-134.446043-51.568346-33.151079-33.151079-49.726619-79.194245-49.726619-136.287769 0-58.935252 18.417266-108.661871 55.251799-145.496403 36.834532-38.676259 84.719424-57.093525 143.654676-57.093525 36.834532 0 68.143885 5.52518 92.086331 14.733813v79.194244z m360.978417 289.151079H644.604317v-154.705036h-160.230216v154.705036h-81.035972V327.827338h81.035972V478.848921H644.604317v-151.021583h79.194244v375.71223z m222.848921-55.251798h-31.309353v57.093525H865.611511v-57.093525h-114.187051v-34.992806l110.503598-169.438849h53.410071V607.769784h31.309353v40.517986z" fill="#ff6868" p-id="22374"></path></svg>