<?xml version="1.0" standalone="no"?><!DOCTYPE svg PUBLIC "-//W3C//DTD SVG 1.1//EN" "http://www.w3.org/Graphics/SVG/1.1/DTD/svg11.dtd"><svg t="1732722359573" class="icon" viewBox="0 0 1024 1024" version="1.1" xmlns="http://www.w3.org/2000/svg" p-id="45054" xmlns:xlink="http://www.w3.org/1999/xlink" width="128" height="128"><path d="M821.410072 0H200.748201C90.244604 0 0 90.244604 0 200.748201v620.661871c0 110.503597 90.244604 200.748201 200.748201 200.748201h620.661871c110.503597 0 200.748201-90.244604 200.748201-200.748201V200.748201C1024 90.244604 931.913669 0 821.410072 0z m-497.266187 425.438849c-22.100719-12.892086-46.043165-18.417266-71.827338-18.417266-31.309353 0-55.251799 9.208633-73.669065 29.467626s-27.625899 46.043165-27.625899 77.352518c0 31.309353 9.208633 55.251799 25.784172 75.510791 16.57554 18.417266 40.517986 27.625899 71.827339 27.625899 27.625899 0 53.410072-7.366906 77.352518-20.258993v60.776979c-22.100719 11.05036-53.410072 16.57554-90.244605 16.575539-47.884892 0-84.719424-14.733813-112.345324-42.359712-27.625899-27.625899-42.359712-66.302158-42.359712-114.18705 0-49.726619 14.733813-90.244604 46.043166-121.553957 31.309353-31.309353 71.827338-47.884892 119.71223-47.884892 31.309353 0 57.093525 3.683453 77.352518 12.892086v64.460432z m156.546762 206.273381v38.676259h-141.812949v-34.992806l62.618705-60.776978c12.892086-12.892086 22.100719-23.942446 27.625899-31.309352 5.52518-9.208633 7.366906-16.57554 7.366907-25.784173 0-20.258993-11.05036-31.309353-33.15108-31.309353-18.417266 0-36.834532 7.366906-53.410071 22.10072v-40.517986c18.417266-12.892086 40.517986-18.417266 62.618705-18.417266 22.100719 0 38.676259 5.52518 51.568345 16.57554 12.892086 11.05036 18.417266 25.784173 18.417266 46.043165 0 25.784173-14.733813 51.568345-46.043165 79.194245l-46.043166 40.517985h90.244604z m311.251799 36.834533h-66.302158v-130.76259H589.352518v130.76259h-66.302158V353.611511H589.352518v127.079136h134.446043v-127.079136H791.942446v314.935252z m174.964029-36.834533v38.676259h-141.81295v-34.992806l62.618705-60.776978c12.892086-12.892086 22.100719-23.942446 27.625899-31.309352 5.52518-9.208633 7.366906-16.57554 7.366907-25.784173 0-20.258993-11.05036-31.309353-33.151079-31.309353-18.417266 0-36.834532 7.366906-53.410072 22.10072v-40.517986c18.417266-12.892086 40.517986-18.417266 62.618705-18.417266 22.100719 0 38.676259 5.52518 51.568345 16.57554 12.892086 11.05036 18.417266 25.784173 18.417266 46.043165 0 25.784173-14.733813 51.568345-46.043165 79.194245l-46.043165 40.517985h90.244604z" fill="#8a8a8a" p-id="45055"></path></svg>