<?xml version="1.0" standalone="no"?><!DOCTYPE svg PUBLIC "-//W3C//DTD SVG 1.1//EN" "http://www.w3.org/Graphics/SVG/1.1/DTD/svg11.dtd"><svg t="1732722318091" class="icon" viewBox="0 0 1025 1024" version="1.1" xmlns="http://www.w3.org/2000/svg" p-id="43875" xmlns:xlink="http://www.w3.org/1999/xlink" width="128.125" height="128"><path d="M900.904781 751.796545a124.553348 124.553348 0 0 0-77.776582 25.925528L674.07829 628.657582c19.436855-32.4142 38.888291-77.776582 38.888291-116.650291 0-58.325146-25.925527-116.650291-71.28791-149.064491l51.851055-97.213437c12.962764 6.474091 25.925527 6.474091 45.362382 6.474092 77.776582 0 136.101727-64.813818 136.101727-136.101728 0-77.776582-64.813818-136.101727-136.101727-136.101727-77.849488 0.014581-136.174634 64.770074-136.174634 136.116309 0 38.888291 19.436855 77.776582 45.362382 103.702108l-58.325145 90.739346c-19.451436-6.488672-45.376963-12.962764-71.28791-12.962764-45.362382 0-84.250673 19.436855-116.650291 38.888291l-71.287909-71.287909c6.474091-12.962764 12.962764-25.925527 12.962764-45.362382 0-51.851054-45.362382-97.213436-97.213437-97.213437s-90.68102 45.347801-90.68102 97.125949 45.362382 97.213436 97.213436 97.213436c19.436855 0 32.399618-6.474091 45.362382-12.962763l71.244166 71.360815q-38.888291 48.614009-38.888291 116.650292c0 38.888291 12.962764 71.287909 32.399618 103.687527l-136.101727 116.650291c-25.925527-19.436855-58.325146-25.925527-90.724764-25.925527-71.287909 0-136.101727 58.325146-136.101727 136.101727s64.813818 136.101727 136.101727 136.101728c77.776582 0 136.101727-64.813818 136.101727-136.101728 0-25.925527-6.474091-51.851054-19.436854-71.287909l136.101727-116.650291c32.4142 25.925527 77.776582 45.362382 123.138963 45.362382s84.250673-12.962764 116.650292-38.888291l149.035328 149.064491c-12.962764 19.436855-25.925527 51.851054-25.925527 77.776582 0 77.762 64.813818 136.101727 136.101727 136.101727 77.762 0 136.101727-64.813818 136.101727-136.101727 12.962764-71.287909-51.851054-136.101727-123.138963-136.101728z m26.567104 240.153787" p-id="43876" fill="#8a8a8a"></path></svg>