<?xml version="1.0" standalone="no"?><!DOCTYPE svg PUBLIC "-//W3C//DTD SVG 1.1//EN" "http://www.w3.org/Graphics/SVG/1.1/DTD/svg11.dtd"><svg t="1732722882714" class="icon" viewBox="0 0 1024 1024" version="1.1" xmlns="http://www.w3.org/2000/svg" p-id="63787" xmlns:xlink="http://www.w3.org/1999/xlink" width="128" height="128"><path d="M825.309867 563.2C860.125867 563.2 887.466667 590.370133 887.466667 622.250667c0 33.0752-28.586667 59.050667-62.1568 59.050666l-474.897067 1.194667 36.0448 34.235733a59.5968 59.5968 0 0 1 17.408 57.873067c-6.212267 21.265067-22.3744 36.625067-44.7488 42.530133-22.391467 5.905067-44.765867-1.194667-60.928-16.554666l-142.967467-135.816534c-18.6368-16.520533-23.620267-42.496-13.653333-64.955733C151.483733 577.365333 173.858133 563.2 199.970133 563.2h625.322667z m-99.566934-357.6832l143.018667 136.2944c18.653867 16.5888 23.637333 42.666667 13.687467 65.194667C872.4992 429.499733 850.090667 443.733333 823.978667 443.733333H199.645867c-22.3744 0-42.274133-11.844267-54.715734-29.627733-11.195733-18.961067-11.195733-41.472 0-59.255467 11.195733-18.961067 31.095467-29.627733 54.715734-29.627733h475.101866l-37.307733-35.566933c-24.8832-23.7056-24.8832-60.433067 0-84.138667a63.709867 63.709867 0 0 1 88.302933 0z" fill="#8a8a8a" p-id="63788"></path></svg>