<?xml version="1.0" standalone="no"?><!DOCTYPE svg PUBLIC "-//W3C//DTD SVG 1.1//EN" "http://www.w3.org/Graphics/SVG/1.1/DTD/svg11.dtd"><svg t="1732721390347" class="icon" viewBox="0 0 1024 1024" version="1.1" xmlns="http://www.w3.org/2000/svg" p-id="17352" xmlns:xlink="http://www.w3.org/1999/xlink" width="128" height="128"><path d="M160.9216 478.0032A131.9424 131.9424 0 1 1 292.864 346.0608a132.096 132.096 0 0 1-131.9424 131.9424z m0-161.4848a29.4912 29.4912 0 1 0 29.4912 29.4912 29.5424 29.5424 0 0 0-29.4912-29.4912zM132.096 982.7328a132.096 132.096 0 1 1 132.096-132.096 132.2496 132.2496 0 0 1-132.096 132.096z m0-161.8432a29.7472 29.7472 0 1 0 29.7472 29.7472 29.7472 29.7472 0 0 0-29.7472-29.7472z m665.6 112.64a131.7376 131.7376 0 1 1 131.7376-131.7376 131.9424 131.9424 0 0 1-131.4816 131.6864z m0-161.024a29.2864 29.2864 0 1 0 29.2864 29.2864 29.2864 29.2864 0 0 0-29.0304-29.3376z m94.1056-199.3216a131.9424 131.9424 0 1 1 131.9424-131.9424 132.096 132.096 0 0 1-131.6864 131.9424z m0-161.4848a29.4912 29.4912 0 1 0 29.4912 29.4912 29.5424 29.5424 0 0 0-29.2352-29.4912z m-315.904-107.52a131.4816 131.4816 0 1 1 131.4816-131.4816 131.6864 131.6864 0 0 1-131.2256 131.5328z m0-160.5632a29.0816 29.0816 0 1 0 29.0816 29.0816 29.1328 29.1328 0 0 0-28.8256-29.0816z" fill="#FF6868" p-id="17353"></path><path d="M797.952 852.9408a50.5344 50.5344 0 0 1-29.7472-9.5744l-637.0304-455.68a51.2 51.2 0 1 1 59.5968-83.3024l637.0304 455.68a51.2 51.2 0 0 1-29.8496 92.8768z m102.912-360.5504a51.2 51.2 0 0 1-32.6144-11.7248l-281.6-232.704L480.5632 402.944a51.2 51.2 0 1 1-84.5312-57.9072l137.7792-201.2672a51.2 51.2 0 0 1 74.8544-10.24l324.6592 268.4928a51.2 51.2 0 0 1-32.6144 90.5728zM124.0064 909.7216a51.2 51.2 0 0 1-42.9568-78.9504l162.7136-251.4944A51.2 51.2 0 1 1 329.6768 634.88l-162.6112 251.4944a51.2 51.2 0 0 1-43.0592 23.296z" fill="#FF6868" p-id="17354"></path></svg>