<?xml version="1.0" standalone="no"?><!DOCTYPE svg PUBLIC "-//W3C//DTD SVG 1.1//EN" "http://www.w3.org/Graphics/SVG/1.1/DTD/svg11.dtd"><svg t="1732721646403" class="icon" viewBox="0 0 1024 1024" version="1.1" xmlns="http://www.w3.org/2000/svg" p-id="26435" xmlns:xlink="http://www.w3.org/1999/xlink" width="128" height="128"><path d="M984.432129 767.176727a153.240851 153.240851 0 0 0-179.548733-35.060115l-117.054719-117.054718a203.809309 203.809309 0 0 0-33.268721-249.157136l35.316027-61.82864a153.138486 153.138486 0 1 0-88.955444-50.61964l-35.111297 61.419179a204.065222 204.065222 0 0 0-229.810094 300.800429l-116.338162 116.286979a153.547947 153.547947 0 1 0 72.372266 72.372265l116.952353-116.90117a204.730596 204.730596 0 0 0 207.084998 0.563009l115.979883 115.979883a153.547947 153.547947 0 1 0 252.381643-36.800325z" fill="#ff6868" p-id="26436"></path></svg>