<?xml version="1.0" standalone="no"?><!DOCTYPE svg PUBLIC "-//W3C//DTD SVG 1.1//EN" "http://www.w3.org/Graphics/SVG/1.1/DTD/svg11.dtd"><svg t="1732721471181" class="icon" viewBox="0 0 1024 1024" version="1.1" xmlns="http://www.w3.org/2000/svg" p-id="19178" xmlns:xlink="http://www.w3.org/1999/xlink" width="128" height="128"><path d="M887.71223 512c-1.841727 3.683453-3.683453 5.52518-5.52518 9.208633l-47.884892 73.669065h55.251799v-69.985612-20.258992c0 1.841727-1.841727 3.683453-1.841727 7.366906z" fill="#ff6868" p-id="19179"></path><path d="M821.410072 0H200.748201C90.244604 0 0 90.244604 0 200.748201v620.661871c0 110.503597 90.244604 200.748201 200.748201 200.748201h620.661871c110.503597 0 200.748201-90.244604 200.748201-200.748201V200.748201C1024 90.244604 931.913669 0 821.410072 0zM320.460432 434.647482c-20.258993-12.892086-44.201439-18.417266-69.985612-18.417266-29.467626 0-53.410072 9.208633-71.827338 29.467626-18.417266 18.417266-27.625899 44.201439-27.625899 75.510791 0 29.467626 9.208633 55.251799 25.784172 73.669065 16.57554 18.417266 40.517986 27.625899 69.985612 27.625899 27.625899 0 51.568345-7.366906 75.510791-20.258993V663.021583c-22.100719 11.05036-51.568345 16.57554-88.402877 16.575539-46.043165 0-82.877698-14.733813-110.503598-42.359712-27.625899-27.625899-40.517986-64.460432-40.517985-110.503597 0-47.884892 14.733813-88.402878 46.043165-119.71223 29.467626-31.309353 69.985612-46.043165 117.870504-46.043166 29.467626 0 55.251799 3.683453 75.510791 11.05036v62.618705z m152.863309 200.748201v36.834533h-138.129496v-34.992806l60.776978-58.935252c12.892086-12.892086 22.100719-22.100719 27.625899-31.309352 5.52518-9.208633 7.366906-16.57554 7.366907-25.784173 0-20.258993-11.05036-29.467626-33.151079-29.467626-18.417266 0-34.992806 7.366906-53.410072 22.10072v-38.676259c18.417266-12.892086 38.676259-18.417266 62.618705-18.417267 20.258993 0 36.834532 5.52518 49.726618 16.57554 12.892086 11.05036 18.417266 25.784173 18.417267 44.201439 0 23.942446-14.733813 51.568345-46.043166 77.352518l-44.201439 40.517985h88.402878z m302.043165 36.834533h-66.302158v-127.079137h-130.76259v127.079137h-66.302158V364.661871h66.302158v123.395683h130.76259v-123.395683h66.302158v307.568345z m180.489209-46.043166h-25.784173v46.043166h-40.517985V626.18705h-93.928058v-27.625899l90.244605-138.129496h44.201438v134.446043h25.784173V626.18705z" fill="#ff6868" p-id="19180"></path></svg>