<?xml version="1.0" standalone="no"?><!DOCTYPE svg PUBLIC "-//W3C//DTD SVG 1.1//EN" "http://www.w3.org/Graphics/SVG/1.1/DTD/svg11.dtd"><svg t="1732723138290" class="icon" viewBox="0 0 1024 1024" version="1.1" xmlns="http://www.w3.org/2000/svg" p-id="14494" xmlns:xlink="http://www.w3.org/1999/xlink" width="128" height="128"><path d="M726.118138 275.022992l147.065645 87.522826 25.762079-44.017327-147.065644-87.693436z m289.012996 1.706098a26.188604 26.188604 0 0 0-12.966344-22.008663L767.405709 114.991003a26.069177 26.069177 0 0 0-25.932689-0.34122l-237.318227 135.122959a26.410397 26.410397 0 0 0-12.966345 22.008664v205.414195a16.19087 16.19087 0 0 1-7.677441 14.501833 18.903565 18.903565 0 0 1-18.084638 0l-162.591136-96.735755a16.071443 16.071443 0 0 1-7.848051-14.331222V25.762079a25.762079 25.762079 0 0 0-51.524159 0v357.427524a16.088504 16.088504 0 0 1-7.84805 14.672443L21.499678 519.336221a23.885372 23.885372 0 0 0-10.407198 22.179274L8.533333 816.367877a26.188604 26.188604 0 0 0 12.966345 22.008664l234.75908 139.729424a24.755482 24.755482 0 0 0 12.966345 3.582805 27.058714 27.058714 0 0 0 12.966344-3.241586l237.318228-135.122959a26.188604 26.188604 0 0 0 12.966344-22.008664V615.901366a16.19087 16.19087 0 0 1 7.677441-14.501833 18.903565 18.903565 0 0 1 18.084638 0l162.591137 96.735755a16.344419 16.344419 0 0 1 7.84805 14.501833V998.237921a25.762079 25.762079 0 0 0 51.524159 0V709.907364a16.088504 16.088504 0 0 1 7.848051-14.672442l211.556148-121.474176a21.377408 21.377408 0 0 0 12.966344-22.008663zM480.781251 796.406531a16.668577 16.668577 0 0 1-7.677441 14.672443l-196.201266 110.725758a14.28004 14.28004 0 0 1-15.354882-0.17061L67.905543 806.643119a16.19087 16.19087 0 0 1-7.677441-14.501833V566.253915a15.67904 15.67904 0 0 1 7.677441-14.501832l196.201266-110.896368a13.955881 13.955881 0 0 1 15.354882 0l193.642119 114.991003a16.19087 16.19087 0 0 1 7.677441 14.501832v226.057981z m482.655115-269.222259a16.37854 16.37854 0 0 1-7.677441 14.501833l-196.201266 110.896368a14.28004 14.28004 0 0 1-15.354882-0.34122l-193.642119-114.820393a17.197468 17.197468 0 0 1-7.848051-14.672443V296.690437a16.71976 16.71976 0 0 1 7.848051-14.501833l196.201266-110.896368a14.894235 14.894235 0 0 1 15.354882 0.17061l193.642119 114.991003a16.480906 16.480906 0 0 1 7.677441 14.672442v226.057981zM80.530668 280.311896a26.137421 26.137421 0 0 0 26.273908-26.103299v-79.674775a26.273909 26.273909 0 0 0-52.547817 0v79.674775a26.137421 26.137421 0 0 0 26.273909 26.103299z m848.271909 414.923026a26.256848 26.256848 0 0 0-26.273909 26.103299v166.856381a26.359214 26.359214 0 0 0 52.718427 0v-166.856381a26.29097 26.29097 0 0 0-26.444518-26.103299z" fill="#8a8a8a" p-id="14495"></path></svg>