<?xml version="1.0" standalone="no"?><!DOCTYPE svg PUBLIC "-//W3C//DTD SVG 1.1//EN" "http://www.w3.org/Graphics/SVG/1.1/DTD/svg11.dtd"><svg t="1732722713112" class="icon" viewBox="0 0 1024 1024" version="1.1" xmlns="http://www.w3.org/2000/svg" p-id="56100" xmlns:xlink="http://www.w3.org/1999/xlink" width="128" height="128"><path d="M112.813559 251.661017m-112.813559 0a112.813559 112.813559 0 1 0 225.627119 0 112.813559 112.813559 0 1 0-225.627119 0Z" p-id="56101" fill="#8a8a8a"></path><path d="M277.694915 607.457627m-52.067796 0a52.067797 52.067797 0 1 0 104.135593 0 52.067797 52.067797 0 1 0-104.135593 0Z" p-id="56102" fill="#8a8a8a"></path><path d="M685.559322 885.152542m-138.847458 0a138.847458 138.847458 0 1 0 277.694916 0 138.847458 138.847458 0 1 0-277.694916 0Z" p-id="56103" fill="#8a8a8a"></path><path d="M590.101695 216.949153a234.305085 234.305085 0 1 0 234.305085 234.305084 234.305085 234.305085 0 0 0-234.305085-234.305084z m147.525424 269.016949H442.576271v-69.423729h295.050848zM216.949153 694.237288a121.491525 121.491525 0 1 0 121.491525 121.491526 121.491525 121.491525 0 0 0-121.491525-121.491526z m69.423728 138.847458H147.525424v-34.711865h138.847457zM954.576271 624.813559a69.423729 69.423729 0 1 0 69.423729 69.423729 69.423729 69.423729 0 0 0-69.423729-69.423729z m34.711865 78.101695h-69.423729v-17.355932h69.423729zM798.372881 0a86.779661 86.779661 0 1 0 86.779661 86.779661A86.779661 86.779661 0 0 0 798.372881 0z m52.067797 104.135593H746.305085V69.423729h104.135593z" p-id="56104" fill="#8a8a8a"></path></svg>