<?xml version="1.0" standalone="no"?><!DOCTYPE svg PUBLIC "-//W3C//DTD SVG 1.1//EN" "http://www.w3.org/Graphics/SVG/1.1/DTD/svg11.dtd"><svg t="1732721615891" class="icon" viewBox="0 0 1024 1024" version="1.1" xmlns="http://www.w3.org/2000/svg" p-id="25287" xmlns:xlink="http://www.w3.org/1999/xlink" width="128" height="128"><path d="M146.285714 406.430476a103.277714 103.277714 0 1 0 0-206.506666 103.277714 103.277714 0 0 0 0 206.506666zM374.00381 268.190476a103.277714 103.277714 0 1 0 0-206.555428 103.277714 103.277714 0 0 0 0 206.506666zM664.868571 416.182857a103.277714 103.277714 0 1 0 0-206.555428 103.277714 103.277714 0 0 0 0 206.555428zM877.714286 279.113143a103.277714 103.277714 0 1 0 0-206.555429 103.277714 103.277714 0 0 0 0 206.555429zM154.86781 959.975619a103.277714 103.277714 0 1 0 0-206.506667 103.277714 103.277714 0 0 0 0 206.506667zM374.00381 816.566857a103.277714 103.277714 0 1 0 0-206.506667 103.277714 103.277714 0 0 0 0 206.506667zM664.868571 959.975619a103.277714 103.277714 0 1 0 0-206.506667 103.277714 103.277714 0 0 0 0 206.506667zM877.714286 821.784381a103.277714 103.277714 0 1 0 0-206.506667 103.277714 103.277714 0 0 0 0 206.506667z" p-id="25288" fill="#ff6868"></path><path d="M902.339048 690.41981a32.670476 32.670476 0 0 0 9.752381-23.552V191.292952a33.206857 33.206857 0 0 0 3.413333-25.843809l-3.413333-6.826667a35.011048 35.011048 0 0 0-34.425905-33.304381 33.840762 33.840762 0 0 0-28.086857 15.506286H374.00381a37.302857 37.302857 0 0 0-17.798096 4.583619L126.73219 283.648a35.011048 35.011048 0 0 0-15.506285 39.009524v2.925714a33.840762 33.840762 0 0 0-2.828191 13.165714V850.407619a33.255619 33.255619 0 0 0 33.840762 40.716191h488.155429a33.255619 33.255619 0 0 0 29.842285 18.383238 34.425905 34.425905 0 0 0 34.425905-33.840762l201.923048-127.951238a35.011048 35.011048 0 0 0 14.921143-39.009524 35.59619 35.59619 0 0 0-9.167238-18.383238z m-57.392762-6.924191h-148.577524V368.64a33.840762 33.840762 0 0 0-13.750857-26.965333l157.208381-100.449524v425.691428c0.585143 7.021714 3.413333 13.653333 7.996952 18.919619l-2.876952-2.291809z m-217.965715-314.904381v317.196191h-217.965714v-334.994286h229.424762a33.840762 33.840762 0 0 0-8.582095 17.798095h-2.925714z m69.388191 384.926476h63.097905l-63.097905 40.131048v-40.131048z m-44.714667-474.453333H408.966095V210.212571h354.011429l-111.323429 68.85181z m-315.489524 0H267.215238l68.85181-41.886476v41.935238z m0 419.937524L179.44381 794.819048V348.501333h158.329904l-1.706666 350.500572z m44.714667 54.515809h246.101333v68.266667H267.215238l113.615238-68.266667z" p-id="25289" fill="#ff6868"></path></svg>